<svg xmlns="http://www.w3.org/2000/svg" width="900" height="560" viewBox="0 0 900 560"><g font-family="Arial,Helvetica,sans-serif"><rect x="0" y="0" width="900" height="560" rx="24" fill="#fbf8f5" stroke="none"/><rect x="24" y="22" width="852" height="516" rx="18" fill="#fff" stroke="#eee1d7"/><path d="M24 79h852" stroke="#f0e6df"/><text x="44" y="58" font-size="22" fill="#008f8a" font-weight="800">REYLUMI</text><text x="272" y="55" font-size="14" fill="#241b1f" font-weight="600">King Nails Salon</text><text x="710" y="55" font-size="12" fill="#72686d" font-weight="400">Owner workspace</text><rect x="36" y="94" width="70" height="430" rx="10" fill="#fbf8f5" stroke="none"/><text x="48" y="122" font-size="11" fill="#91878c" font-weight="400">Today</text><text x="48" y="165" font-size="11" fill="#91878c" font-weight="400">Book</text><text x="48" y="208" font-size="11" fill="#91878c" font-weight="400">POS</text><text x="48" y="251" font-size="11" fill="#91878c" font-weight="400">Team</text><rect x="42" y="271" width="58" height="37" rx="7" fill="#fff0e8" stroke="none"/><text x="48" y="294" font-size="11" fill="#c85729" font-weight="700">More</text><text x="126" y="111" font-size="23" fill="#241b1f" font-weight="750">Salon Online Store</text><text x="126" y="131" font-size="10" fill="#72686d" font-weight="400">Store / Orders and pickup</text><rect x="126" y="140" width="206" height="112" rx="14" fill="#fff" stroke="#f0e6df"/><text x="144" y="168" font-size="14" fill="#72686d" font-weight="400">New orders</text><text x="144" y="205" font-size="28" fill="#241b1f" font-weight="700">3</text><text x="144" y="231" font-size="12" fill="#008f8a" font-weight="400">Awaiting fulfillment</text><rect x="348" y="140" width="206" height="112" rx="14" fill="#fff" stroke="#f0e6df"/><text x="366" y="168" font-size="14" fill="#72686d" font-weight="400">Ready for pickup</text><text x="366" y="205" font-size="28" fill="#241b1f" font-weight="700">2</text><text x="366" y="231" font-size="12" fill="#008f8a" font-weight="400">Customers notified</text><rect x="570" y="140" width="206" height="112" rx="14" fill="#fff" stroke="#f0e6df"/><text x="588" y="168" font-size="14" fill="#72686d" font-weight="400">Stock updates</text><text x="588" y="205" font-size="28" fill="#241b1f" font-weight="700">Connected</text><text x="588" y="231" font-size="12" fill="#008f8a" font-weight="400">Reserve stock on purchase</text><rect x="126" y="280" width="650" height="192" rx="14" fill="#fff" stroke="#f0e6df"/><rect x="127" y="281" width="648" height="42" rx="12" fill="#fbf8f5" stroke="#fbf8f5"/><text x="144" y="308" font-size="13" fill="#91878c" font-weight="600">Order</text><text x="414" y="308" font-size="13" fill="#91878c" font-weight="600">Items / Total</text><text x="604" y="308" font-size="13" fill="#91878c" font-weight="600">Status</text><path d="M144 324h614" stroke="#f4ece6"/><text x="144" y="354" font-size="14" fill="#241b1f" font-weight="600">#S1042 · Emma Wilson</text><text x="414" y="354" font-size="14" fill="#72686d" font-weight="400">Care kit · $32</text><text x="604" y="354" font-size="14" fill="#72686d" font-weight="400">Paid</text><path d="M144 372h614" stroke="#f4ece6"/><text x="144" y="402" font-size="14" fill="#241b1f" font-weight="600">#S1041 · Sophie Miller</text><text x="414" y="402" font-size="14" fill="#72686d" font-weight="400">2 oils · $24</text><text x="604" y="402" font-size="14" fill="#72686d" font-weight="400">Ready for pickup</text><path d="M144 420h614" stroke="#f4ece6"/><text x="144" y="450" font-size="14" fill="#241b1f" font-weight="600">#S1040 · Mia Davis</text><text x="414" y="450" font-size="14" fill="#72686d" font-weight="400">Hand cream · $18</text><text x="604" y="450" font-size="14" fill="#72686d" font-weight="400">Collected</text><rect x="546" y="485" width="230" height="40" rx="9" fill="#f26f3d" stroke="#f26f3d"/><text text-anchor="middle" x="661" y="511" font-size="14" fill="#fff" font-weight="700">Prepare pickup order</text></g></svg>