<svg xmlns="http://www.w3.org/2000/svg" width="900" height="560" viewBox="0 0 900 560"><g font-family="Arial,Helvetica,sans-serif"><rect x="0" y="0" width="900" height="560" rx="24" fill="#fbf8f5" stroke="none"/><rect x="24" y="22" width="852" height="516" rx="18" fill="#fff" stroke="#eee1d7"/><path d="M24 79h852" stroke="#f0e6df"/><text x="44" y="58" font-size="22" fill="#008f8a" font-weight="800">REYLUMI</text><text x="272" y="55" font-size="14" fill="#241b1f" font-weight="600">King Nails Salon</text><text x="710" y="55" font-size="12" fill="#72686d" font-weight="400">Owner workspace</text><rect x="36" y="94" width="70" height="430" rx="10" fill="#fbf8f5" stroke="none"/><text x="48" y="122" font-size="11" fill="#91878c" font-weight="400">Today</text><text x="48" y="165" font-size="11" fill="#91878c" font-weight="400">Book</text><text x="48" y="208" font-size="11" fill="#91878c" font-weight="400">POS</text><rect x="42" y="228" width="58" height="37" rx="7" fill="#fff0e8" stroke="none"/><text x="48" y="251" font-size="11" fill="#c85729" font-weight="700">Team</text><text x="48" y="294" font-size="11" fill="#91878c" font-weight="400">More</text><text x="126" y="111" font-size="23" fill="#241b1f" font-weight="750">Print Check</text><text x="126" y="131" font-size="10" fill="#72686d" font-weight="400">Payroll / Check printing</text><rect x="126" y="140" width="206" height="112" rx="14" fill="#fff" stroke="#f0e6df"/><text x="144" y="168" font-size="14" fill="#72686d" font-weight="400">Approved payroll</text><text x="144" y="205" font-size="28" fill="#241b1f" font-weight="700">$4,280.00</text><text x="144" y="231" font-size="12" fill="#008f8a" font-weight="400">4 payees ready</text><rect x="348" y="140" width="206" height="112" rx="14" fill="#fff" stroke="#f0e6df"/><text x="366" y="168" font-size="14" fill="#72686d" font-weight="400">Check sequence</text><text x="366" y="205" font-size="28" fill="#241b1f" font-weight="700">1042–1045</text><text x="366" y="231" font-size="12" fill="#008f8a" font-weight="400">Test alignment first</text><rect x="126" y="275" width="650" height="180" rx="14" fill="#fffdf6" stroke="#f0e6df"/><text x="150" y="307" font-size="17" fill="#241b1f" font-weight="700">KING NAILS SALON</text><text x="675" y="307" font-size="14" fill="#72686d" font-weight="400">No. 1042</text><text x="150" y="350" font-size="17" fill="#241b1f" font-weight="400">PAY TO   Emma Wilson</text><text x="640" y="350" font-size="21" fill="#241b1f" font-weight="700">$1,120.00</text><text x="150" y="391" font-size="14" fill="#72686d" font-weight="400">One thousand one hundred twenty dollars</text><text x="150" y="429" font-size="12" fill="#72686d" font-weight="400">Payroll period: Oct 1–15</text><rect x="588" y="475" width="188" height="40" rx="9" fill="#f26f3d" stroke="#f26f3d"/><text text-anchor="middle" x="682" y="501" font-size="14" fill="#fff" font-weight="700">Print checks</text></g></svg>