<svg xmlns="http://www.w3.org/2000/svg" width="900" height="560" viewBox="0 0 900 560"><g font-family="Arial,Helvetica,sans-serif"><rect x="0" y="0" width="900" height="560" rx="24" fill="#fbf8f5" stroke="none"/><rect x="24" y="22" width="852" height="516" rx="18" fill="#fff" stroke="#eee1d7"/><path d="M24 79h852" stroke="#f0e6df"/><text x="44" y="58" font-size="22" fill="#008f8a" font-weight="800">REYLUMI</text><text x="272" y="55" font-size="14" fill="#241b1f" font-weight="600">King Nails Salon</text><text x="710" y="55" font-size="12" fill="#72686d" font-weight="400">Owner workspace</text><rect x="36" y="94" width="70" height="430" rx="10" fill="#fbf8f5" stroke="none"/><text x="48" y="122" font-size="11" fill="#91878c" font-weight="400">Today</text><text x="48" y="165" font-size="11" fill="#91878c" font-weight="400">Book</text><text x="48" y="208" font-size="11" fill="#91878c" font-weight="400">POS</text><text x="48" y="251" font-size="11" fill="#91878c" font-weight="400">Team</text><rect x="42" y="271" width="58" height="37" rx="7" fill="#fff0e8" stroke="none"/><text x="48" y="294" font-size="11" fill="#c85729" font-weight="700">Market</text><text x="126" y="111" font-size="23" fill="#241b1f" font-weight="750">QR Ticket</text><text x="126" y="131" font-size="10" fill="#72686d" font-weight="400">POS / Ticket handoff</text><rect x="126" y="140" width="350" height="350" rx="14" fill="#fff" stroke="#f0e6df"/><text x="146" y="177" font-size="22" fill="#241b1f" font-weight="700">Ticket #1042</text><rect x="146" y="194" width="168" height="30" rx="15" fill="#e7f7f5" stroke="#e7f7f5"/><text x="158" y="214" font-size="13" fill="#008f8a" font-weight="600">Ready for checkout</text><text x="146" y="270" font-size="16" fill="#241b1f" font-weight="400">Gel manicure</text><text x="382" y="270" font-size="16" fill="#241b1f" font-weight="400">$45.00</text><text x="146" y="310" font-size="16" fill="#72686d" font-weight="400">Tip</text><text x="382" y="310" font-size="16" fill="#72686d" font-weight="400">$9.00</text><text x="146" y="359" font-size="20" fill="#241b1f" font-weight="700">Total</text><text x="372" y="359" font-size="20" fill="#241b1f" font-weight="700">$54.00</text><rect x="496" y="140" width="280" height="350" rx="14" fill="#fff" stroke="#f0e6df"/><text x="522" y="177" font-size="17" fill="#241b1f" font-weight="700">Scan for your receipt</text><rect x="542" y="203" width="188" height="188" rx="14" fill="#fff" stroke="#f0e6df"/><rect x="554" y="215" width="9" height="9" rx="0" fill="#241b1f" stroke="none"/><rect x="587" y="215" width="9" height="9" rx="0" fill="#241b1f" stroke="none"/><rect x="609" y="215" width="9" height="9" rx="0" fill="#241b1f" stroke="none"/><rect x="642" y="215" width="9" height="9" rx="0" fill="#241b1f" stroke="none"/><rect x="664" y="215" width="9" height="9" rx="0" fill="#241b1f" stroke="none"/><rect x="697" y="215" width="9" height="9" rx="0" fill="#241b1f" stroke="none"/><rect x="554" y="226" width="9" height="9" rx="0" fill="#241b1f" stroke="none"/><rect x="587" y="226" width="9" height="9" rx="0" fill="#241b1f" stroke="none"/><rect x="609" y="226" width="9" height="9" rx="0" fill="#241b1f" stroke="none"/><rect x="642" y="226" width="9" height="9" rx="0" fill="#241b1f" stroke="none"/><rect x="664" y="226" width="9" height="9" rx="0" fill="#241b1f" stroke="none"/><rect x="697" y="226" width="9" height="9" rx="0" fill="#241b1f" stroke="none"/><rect x="565" y="237" width="9" height="9" rx="0" fill="#241b1f" stroke="none"/><rect x="576" y="237" width="9" height="9" rx="0" fill="#241b1f" stroke="none"/><rect x="620" y="237" width="9" height="9" rx="0" fill="#241b1f" stroke="none"/><rect x="631" y="237" width="9" height="9" rx="0" fill="#241b1f" stroke="none"/><rect x="675" y="237" width="9" height="9" rx="0" fill="#241b1f" stroke="none"/><rect x="686" y="237" width="9" height="9" rx="0" fill="#241b1f" stroke="none"/><rect x="565" y="259" width="9" height="9" rx="0" fill="#241b1f" stroke="none"/><rect x="576" y="259" width="9" height="9" rx="0" fill="#241b1f" stroke="none"/><rect x="620" y="259" width="9" height="9" rx="0" fill="#241b1f" stroke="none"/><rect x="631" y="259" width="9" height="9" rx="0" fill="#241b1f" stroke="none"/><rect x="675" y="259" width="9" height="9" rx="0" fill="#241b1f" stroke="none"/><rect x="686" y="259" width="9" height="9" rx="0" fill="#241b1f" stroke="none"/><rect x="554" y="270" width="9" height="9" rx="0" fill="#241b1f" stroke="none"/><rect x="587" y="270" width="9" height="9" rx="0" fill="#241b1f" stroke="none"/><rect x="609" y="270" width="9" height="9" rx="0" fill="#241b1f" stroke="none"/><rect x="642" y="270" width="9" height="9" rx="0" fill="#241b1f" stroke="none"/><rect x="664" y="270" width="9" height="9" rx="0" fill="#241b1f" stroke="none"/><rect x="697" y="270" width="9" height="9" rx="0" fill="#241b1f" stroke="none"/><rect x="554" y="281" width="9" height="9" rx="0" fill="#241b1f" stroke="none"/><rect x="587" y="281" width="9" height="9" rx="0" fill="#241b1f" stroke="none"/><rect x="609" y="281" width="9" height="9" rx="0" fill="#241b1f" stroke="none"/><rect x="642" y="281" width="9" height="9" rx="0" fill="#241b1f" stroke="none"/><rect x="664" y="281" width="9" height="9" rx="0" fill="#241b1f" stroke="none"/><rect x="697" y="281" width="9" height="9" rx="0" fill="#241b1f" stroke="none"/><rect x="565" y="292" width="9" height="9" rx="0" fill="#241b1f" stroke="none"/><rect x="576" y="292" width="9" height="9" rx="0" fill="#241b1f" stroke="none"/><rect x="620" y="292" width="9" height="9" rx="0" fill="#241b1f" stroke="none"/><rect x="631" y="292" width="9" height="9" rx="0" fill="#241b1f" stroke="none"/><rect x="675" y="292" width="9" height="9" rx="0" fill="#241b1f" stroke="none"/><rect x="686" y="292" width="9" height="9" rx="0" fill="#241b1f" stroke="none"/><rect x="565" y="314" width="9" height="9" rx="0" fill="#241b1f" stroke="none"/><rect x="576" y="314" width="9" height="9" rx="0" fill="#241b1f" stroke="none"/><rect x="620" y="314" width="9" height="9" rx="0" fill="#241b1f" stroke="none"/><rect x="631" y="314" width="9" height="9" rx="0" fill="#241b1f" stroke="none"/><rect x="675" y="314" width="9" height="9" rx="0" fill="#241b1f" stroke="none"/><rect x="686" y="314" width="9" height="9" rx="0" fill="#241b1f" stroke="none"/><rect x="554" y="325" width="9" height="9" rx="0" fill="#241b1f" stroke="none"/><rect x="587" y="325" width="9" height="9" rx="0" fill="#241b1f" stroke="none"/><rect x="609" y="325" width="9" height="9" rx="0" fill="#241b1f" stroke="none"/><rect x="642" y="325" width="9" height="9" rx="0" fill="#241b1f" stroke="none"/><rect x="664" y="325" width="9" height="9" rx="0" fill="#241b1f" stroke="none"/><rect x="697" y="325" width="9" height="9" rx="0" fill="#241b1f" stroke="none"/><rect x="554" y="336" width="9" height="9" rx="0" fill="#241b1f" stroke="none"/><rect x="587" y="336" width="9" height="9" rx="0" fill="#241b1f" stroke="none"/><rect x="609" y="336" width="9" height="9" rx="0" fill="#241b1f" stroke="none"/><rect x="642" y="336" width="9" height="9" rx="0" fill="#241b1f" stroke="none"/><rect x="664" y="336" width="9" height="9" rx="0" fill="#241b1f" stroke="none"/><rect x="697" y="336" width="9" height="9" rx="0" fill="#241b1f" stroke="none"/><rect x="565" y="347" width="9" height="9" rx="0" fill="#241b1f" stroke="none"/><rect x="576" y="347" width="9" height="9" rx="0" fill="#241b1f" stroke="none"/><rect x="620" y="347" width="9" height="9" rx="0" fill="#241b1f" stroke="none"/><rect x="631" y="347" width="9" height="9" rx="0" fill="#241b1f" stroke="none"/><rect x="675" y="347" width="9" height="9" rx="0" fill="#241b1f" stroke="none"/><rect x="686" y="347" width="9" height="9" rx="0" fill="#241b1f" stroke="none"/><rect x="565" y="369" width="9" height="9" rx="0" fill="#241b1f" stroke="none"/><rect x="576" y="369" width="9" height="9" rx="0" fill="#241b1f" stroke="none"/><rect x="620" y="369" width="9" height="9" rx="0" fill="#241b1f" stroke="none"/><rect x="631" y="369" width="9" height="9" rx="0" fill="#241b1f" stroke="none"/><rect x="675" y="369" width="9" height="9" rx="0" fill="#241b1f" stroke="none"/><rect x="686" y="369" width="9" height="9" rx="0" fill="#241b1f" stroke="none"/><text x="534" y="428" font-size="11" fill="#72686d" font-weight="400">Secure link · Expires in 24 hours</text><text x="526" y="460" font-size="14" fill="#008f8a" font-weight="400">Customer receipt view</text></g></svg>