<svg xmlns="http://www.w3.org/2000/svg" width="900" height="560" viewBox="0 0 900 560"><g font-family="Arial,Helvetica,sans-serif"><rect x="0" y="0" width="900" height="560" rx="24" fill="#fbf8f5" stroke="none"/><rect x="24" y="22" width="852" height="516" rx="18" fill="#fff" stroke="#eee1d7"/><path d="M24 79h852" stroke="#f0e6df"/><text x="44" y="58" font-size="22" fill="#008f8a" font-weight="800">REYLUMI</text><text x="272" y="55" font-size="14" fill="#241b1f" font-weight="600">King Nails Salon</text><text x="710" y="55" font-size="12" fill="#72686d" font-weight="400">Owner workspace</text><rect x="36" y="94" width="70" height="430" rx="10" fill="#fbf8f5" stroke="none"/><text x="48" y="122" font-size="11" fill="#91878c" font-weight="400">Today</text><text x="48" y="165" font-size="11" fill="#91878c" font-weight="400">Book</text><text x="48" y="208" font-size="11" fill="#91878c" font-weight="400">POS</text><text x="48" y="251" font-size="11" fill="#91878c" font-weight="400">Team</text><rect x="42" y="271" width="58" height="37" rx="7" fill="#fff0e8" stroke="none"/><text x="48" y="294" font-size="11" fill="#c85729" font-weight="700">Market</text><text x="126" y="111" font-size="23" fill="#241b1f" font-weight="750">Rewards Circle</text><text x="126" y="131" font-size="10" fill="#72686d" font-weight="400">Customers / Loyalty</text><rect x="126" y="140" width="206" height="112" rx="14" fill="#fff" stroke="#f0e6df"/><text x="144" y="168" font-size="14" fill="#72686d" font-weight="400">Emma’s points</text><text x="144" y="205" font-size="28" fill="#241b1f" font-weight="700">240</text><text x="144" y="231" font-size="12" fill="#008f8a" font-weight="400">80 points from last visit</text><rect x="348" y="140" width="206" height="112" rx="14" fill="#fff" stroke="#f0e6df"/><text x="366" y="168" font-size="14" fill="#72686d" font-weight="400">Next reward</text><text x="366" y="205" font-size="28" fill="#241b1f" font-weight="700">300 points</text><text x="366" y="231" font-size="12" fill="#008f8a" font-weight="400">60 points to go</text><rect x="570" y="140" width="206" height="112" rx="14" fill="#fff" stroke="#f0e6df"/><text x="588" y="168" font-size="14" fill="#72686d" font-weight="400">Members enrolled</text><text x="588" y="205" font-size="28" fill="#241b1f" font-weight="700">412</text><text x="588" y="231" font-size="12" fill="#008f8a" font-weight="400">Points and visit stamps</text><rect x="126" y="279" width="650" height="208" rx="14" fill="#fff8e9" stroke="#f0e6df"/><text x="149" y="317" font-size="23" fill="#241b1f" font-weight="700">A little thank-you for coming back.</text><rect x="149" y="348" width="598" height="14" rx="7" fill="#efe5d0" stroke="none"/><rect x="149" y="348" width="478" height="14" rx="7" fill="#f26f3d" stroke="none"/><text x="149" y="400" font-size="16" fill="#241b1f" font-weight="600">240 / 300 points</text><text x="149" y="436" font-size="16" fill="#72686d" font-weight="400">Unlock: $10 toward your next service</text></g></svg>