<svg xmlns="http://www.w3.org/2000/svg" width="900" height="560" viewBox="0 0 900 560"><g font-family="Arial,Helvetica,sans-serif"><rect x="0" y="0" width="900" height="560" rx="24" fill="#fbf8f5" stroke="none"/><rect x="24" y="22" width="852" height="516" rx="18" fill="#fff" stroke="#eee1d7"/><path d="M24 79h852" stroke="#f0e6df"/><text x="44" y="58" font-size="22" fill="#008f8a" font-weight="800">REYLUMI</text><text x="272" y="55" font-size="14" fill="#241b1f" font-weight="600">King Nails Salon</text><text x="710" y="55" font-size="12" fill="#72686d" font-weight="400">Owner workspace</text><rect x="36" y="94" width="70" height="430" rx="10" fill="#fbf8f5" stroke="none"/><text x="48" y="122" font-size="11" fill="#91878c" font-weight="400">Today</text><text x="48" y="165" font-size="11" fill="#91878c" font-weight="400">Book</text><text x="48" y="208" font-size="11" fill="#91878c" font-weight="400">POS</text><text x="48" y="251" font-size="11" fill="#91878c" font-weight="400">Team</text><rect x="42" y="271" width="58" height="37" rx="7" fill="#fff0e8" stroke="none"/><text x="48" y="294" font-size="11" fill="#c85729" font-weight="700">More</text><text x="126" y="111" font-size="23" fill="#241b1f" font-weight="750">Salon Insights</text><text x="126" y="131" font-size="10" fill="#72686d" font-weight="400">Reports / Business overview</text><rect x="126" y="140" width="206" height="112" rx="14" fill="#fff" stroke="#f0e6df"/><text x="144" y="168" font-size="14" fill="#72686d" font-weight="400">Sales · last 6 weeks</text><text x="144" y="205" font-size="28" fill="#241b1f" font-weight="700">$28,420</text><text x="144" y="231" font-size="12" fill="#008f8a" font-weight="400">Selected salon</text><rect x="348" y="140" width="206" height="112" rx="14" fill="#fff" stroke="#f0e6df"/><text x="366" y="168" font-size="14" fill="#72686d" font-weight="400">Paid tickets</text><text x="366" y="205" font-size="28" fill="#241b1f" font-weight="700">412</text><text x="366" y="231" font-size="12" fill="#008f8a" font-weight="400">Same reporting period</text><rect x="570" y="140" width="206" height="112" rx="14" fill="#fff" stroke="#f0e6df"/><text x="588" y="168" font-size="14" fill="#72686d" font-weight="400">Average ticket</text><text x="588" y="205" font-size="28" fill="#241b1f" font-weight="700">$68.98</text><text x="588" y="231" font-size="12" fill="#008f8a" font-weight="400">Sales / tickets</text><rect x="126" y="274" width="430" height="230" rx="14" fill="#fff" stroke="#f0e6df"/><text x="146" y="309" font-size="17" fill="#241b1f" font-weight="700">Weekly sales · Sep 1–Oct 12</text><rect x="146" y="406" width="49.16666666666667" height="65" rx="5" fill="#f8b799" stroke="none"/><rect x="210.16666666666669" y="373" width="49.16666666666667" height="98" rx="5" fill="#f8b799" stroke="none"/><rect x="274.33333333333337" y="388" width="49.16666666666667" height="83" rx="5" fill="#f8b799" stroke="none"/><rect x="338.5" y="342" width="49.16666666666667" height="129" rx="5" fill="#f8b799" stroke="none"/><rect x="402.6666666666667" y="364" width="49.16666666666667" height="107" rx="5" fill="#f8b799" stroke="none"/><rect x="466.83333333333337" y="329" width="49.16666666666667" height="142" rx="5" fill="#008f8a" stroke="none"/><path d="M146 474h385" stroke="#eaded3"/><rect x="574" y="274" width="202" height="230" rx="14" fill="#fff" stroke="#f0e6df"/><text x="591" y="309" font-size="16" fill="#241b1f" font-weight="700">Top services</text><text x="591" y="352" font-size="14" fill="#72686d" font-weight="400">Gel manicure</text><text x="591" y="388" font-size="14" fill="#72686d" font-weight="400">Pedicure</text><text x="591" y="424" font-size="14" fill="#72686d" font-weight="400">Nail art</text></g></svg>